<?xml version="1.0" encoding="UTF-8" standalone="no"?>
<svg
   enable-background="new 0 0 512 512"
   height="512"
   viewBox="0 0 512 512"
   width="512"
   version="1.1"
   id="svg2"
   sodipodi:docname="quiqr.svg"
   inkscape:version="1.3 (0e150ed6c4, 2023-07-21)"
   xmlns:inkscape="http://www.inkscape.org/namespaces/inkscape"
   xmlns:sodipodi="http://sodipodi.sourceforge.net/DTD/sodipodi-0.dtd"
   xmlns="http://www.w3.org/2000/svg"
   xmlns:svg="http://www.w3.org/2000/svg">
  <defs
     id="defs2" />
  <sodipodi:namedview
     id="namedview2"
     pagecolor="#ffffff"
     bordercolor="#000000"
     borderopacity="0.25"
     inkscape:showpageshadow="2"
     inkscape:pageopacity="0.0"
     inkscape:pagecheckerboard="0"
     inkscape:deskcolor="#d1d1d1"
     inkscape:zoom="2.2988281"
     inkscape:cx="256.2175"
     inkscape:cy="300.80544"
     inkscape:window-width="2560"
     inkscape:window-height="1374"
     inkscape:window-x="0"
     inkscape:window-y="29"
     inkscape:window-maximized="1"
     inkscape:current-layer="svg2" />
  <g
     id="g3"
     style="display:inline">
    <rect
       style="fill:#d9fdff;fill-opacity:1;stroke:#37b6ff;stroke-width:18.972;stroke-linejoin:round;stroke-miterlimit:4;stroke-dasharray:none;stroke-opacity:1"
       id="rect2860"
       width="421.32837"
       height="421.32837"
       x="45.36158"
       y="45.111099"
       ry="49.435902" />
    <path
       d="m 297.78282,152.70029 q 66.39125,0 66.39125,51.57667 0,8.23032 -1.64607,17.83236 l -11.2481,63.09912 q -5.48688,31.82391 -22.77055,49.10758 -17.00933,17.00932 -47.73586,20.5758 3.01779,9.87638 14.54023,15.6376 11.7968,6.03557 30.45219,6.03557 l -1.37172,38.95685 q -20.85015,0 -36.7621,-4.66385 -15.63761,-4.66385 -24.41661,-11.52245 -8.50467,-6.58425 -13.99155,-15.6376 -8.23032,-13.99155 -8.77901,-29.35481 -45.26675,-6.8586 -45.26675,-49.65626 0,-9.05336 1.9204,-19.47843 l 11.24811,-63.09912 q 12.34548,-69.40903 89.43614,-69.40903 z m -28.53178,160.76558 q 13.7172,0 21.94752,-6.8586 8.23032,-6.8586 11.52245,-25.23964 l 9.87639,-55.41749 q 0.82303,-5.21254 0.82303,-9.3277 0,-21.39883 -23.0449,-21.39883 -28.25743,0.54869 -33.46997,30.72653 l -9.60204,55.41749 q -1.09737,6.58425 -1.09737,13.7172 0,18.38104 23.04489,18.38104 z"
       id="text2826"
       style="font-size:274.344px;line-height:1.25;font-family:'Fugaz One';-inkscape-font-specification:'Fugaz One, Normal';letter-spacing:0px;word-spacing:0px;fill:#ff5758;stroke-width:6.85866"
       aria-label="Q" />
    <rect
       style="fill:#ff5758;fill-opacity:1;stroke:none;stroke-width:0.411123;stroke-linejoin:round"
       id="rect2828"
       width="168.47105"
       height="30.689367"
       x="139.69122"
       y="152.59746"
       ry="15.344684" />
    <rect
       style="fill:#ff5758;fill-opacity:1;stroke:none;stroke-width:0.396033;stroke-linejoin:round"
       id="rect2830"
       width="156.33127"
       height="30.689367"
       x="90.763878"
       y="207.64777"
       ry="15.344684" />
    <rect
       style="fill:#ff5758;fill-opacity:1;stroke:none;stroke-width:0.349935;stroke-linejoin:round"
       id="rect2832"
       width="122.0564"
       height="30.689367"
       x="122.35431"
       y="268.25595"
       ry="15.344684" />
    <rect
       style="fill:#ff5758;fill-opacity:1;stroke:none;stroke-width:0.411123;stroke-linejoin:round"
       id="rect2834"
       width="168.47105"
       height="30.689367"
       x="76.108376"
       y="323.29608"
       ry="15.344684" />
    <path
       sodipodi:type="star"
       style="fill:#9d98f1;fill-opacity:1;stroke:none;stroke-width:0.509994;stroke-linejoin:round"
       id="path2836"
       inkscape:flatsided="false"
       sodipodi:sides="5"
       sodipodi:cx="1350.9985"
       sodipodi:cy="4726.5005"
       sodipodi:r1="12.270322"
       sodipodi:r2="30.779648"
       sodipodi:arg1="0.90154549"
       sodipodi:arg2="1.529864"
       inkscape:rounded="0"
       inkscape:randomized="0"
       d="m 1358.611,4736.1239 -6.3529,21.1305 -8.0596,-20.5402 -22.0594,0.4876 17.0443,-14.0123 -7.2805,-20.8291 18.5935,11.88 17.5598,-13.3606 -5.5528,21.3546 18.133,12.5717 z"
       transform="matrix(1.5872521,0,0,1.5872521,-1734.5744,-7364.9979)"
       inkscape:transform-center-y="0.00014090893"
       inkscape:transform-center-x="2.4016711e-06" />
  </g>
</svg>
